<svg width="32" height="32" viewBox="0 0 32 32" fill="none" xmlns="http://www.w3.org/2000/svg">
<g id="Calendar">
<path id="Vector" d="M10.375 6C10.5408 6 10.6997 6.06585 10.8169 6.18306C10.9342 6.30027 11 6.45924 11 6.625V7.25H21V6.625C21 6.45924 21.0658 6.30027 21.1831 6.18306C21.3003 6.06585 21.4592 6 21.625 6C21.7908 6 21.9497 6.06585 22.0669 6.18306C22.1842 6.30027 22.25 6.45924 22.25 6.625V7.25H23.5C24.163 7.25 24.7989 7.51339 25.2678 7.98223C25.7366 8.45107 26 9.08696 26 9.75V23.5C26 24.163 25.7366 24.7989 25.2678 25.2678C24.7989 25.7366 24.163 26 23.5 26H8.5C7.83696 26 7.20107 25.7366 6.73223 25.2678C6.26339 24.7989 6 24.163 6 23.5V12.25H26V11H6V9.75C6 9.08696 6.26339 8.45107 6.73223 7.98223C7.20107 7.51339 7.83696 7.25 8.5 7.25H9.75V6.625C9.75 6.45924 9.81585 6.30027 9.93306 6.18306C10.0503 6.06585 10.2092 6 10.375 6V6Z" fill="#ABB2BF"/>
</g>
</svg>
