<svg width="32" height="32" viewBox="0 0 32 32" fill="none" xmlns="http://www.w3.org/2000/svg">
<g id="Card">
<path id="Vector" d="M5 10.6667C5 9.95942 5.28973 9.28115 5.80546 8.78105C6.32118 8.28095 7.02065 8 7.75 8H24.25C24.9793 8 25.6788 8.28095 26.1945 8.78105C26.7103 9.28115 27 9.95942 27 10.6667V17.3333H5V10.6667ZM20.8125 12C20.6302 12 20.4553 12.0702 20.3264 12.1953C20.1974 12.3203 20.125 12.4899 20.125 12.6667V14C20.125 14.1768 20.1974 14.3464 20.3264 14.4714C20.4553 14.5964 20.6302 14.6667 20.8125 14.6667H23.5625C23.7448 14.6667 23.9197 14.5964 24.0486 14.4714C24.1776 14.3464 24.25 14.1768 24.25 14V12.6667C24.25 12.4899 24.1776 12.3203 24.0486 12.1953C23.9197 12.0702 23.7448 12 23.5625 12H20.8125ZM5 20V21.3333C5 22.0406 5.28973 22.7189 5.80546 23.219C6.32118 23.719 7.02065 24 7.75 24H24.25C24.9793 24 25.6788 23.719 26.1945 23.219C26.7103 22.7189 27 22.0406 27 21.3333V20H5Z" fill="#ABB2BF"/>
</g>
</svg>
