<svg width="72" height="21" viewBox="0 0 72 21" fill="none" xmlns="http://www.w3.org/2000/svg">
<path fill-rule="evenodd" clip-rule="evenodd" d="M12 2.5H8V6.5H4H0V10.5V14.5V18.5H4H8V14.5H12H16V10.5V6.5V2.5H12ZM4 14.5H8V10.5H12V6.5H8V10.5H4V14.5Z" fill="white"/>
<path d="M28.112 6.784V9.448H31.952V11.288H28.112V14.12H32.744V16H25.488V4.912H32.736L32.472 6.784H28.112ZM39.1458 4.128V13.328C39.1458 13.6693 39.2418 13.9147 39.4338 14.064C39.6311 14.208 39.9004 14.28 40.2418 14.28C40.4604 14.28 40.6711 14.256 40.8738 14.208C41.0764 14.1547 41.2658 14.0933 41.4418 14.024L42.0498 15.712C41.7618 15.8613 41.4151 15.992 41.0098 16.104C40.6044 16.216 40.1324 16.272 39.5938 16.272C38.5698 16.272 37.8178 15.9787 37.3378 15.392C36.8578 14.8 36.6178 14.008 36.6178 13.016V5.856H34.1138V4.128H39.1458ZM49.4995 7.504V14.272H51.6595V16H44.5635V14.272H46.9715V9.232H44.6435V7.504H49.4995ZM47.9715 3.056C48.4088 3.056 48.7662 3.192 49.0435 3.464C49.3208 3.736 49.4595 4.07467 49.4595 4.48C49.4595 4.88533 49.3208 5.22667 49.0435 5.504C48.7662 5.776 48.4088 5.912 47.9715 5.912C47.5288 5.912 47.1662 5.776 46.8835 5.504C46.6062 5.22667 46.4675 4.88533 46.4675 4.48C46.4675 4.07467 46.6062 3.736 46.8835 3.464C47.1662 3.192 47.5288 3.056 47.9715 3.056ZM61.0533 13.552C61.0533 13.872 61.0959 14.104 61.1813 14.248C61.2719 14.392 61.4159 14.5013 61.6133 14.576L61.0933 16.24C60.5919 16.192 60.1679 16.0827 59.8213 15.912C59.4799 15.736 59.2106 15.472 59.0133 15.12C58.6879 15.5093 58.2719 15.8 57.7653 15.992C57.2586 16.1787 56.7413 16.272 56.2133 16.272C55.3386 16.272 54.6399 16.024 54.1173 15.528C53.5999 15.0267 53.3413 14.384 53.3413 13.6C53.3413 12.6773 53.7013 11.9653 54.4213 11.464C55.1466 10.9627 56.1653 10.712 57.4773 10.712H58.6213V10.392C58.6213 9.94933 58.4773 9.62133 58.1893 9.408C57.9066 9.19467 57.4906 9.088 56.9413 9.088C56.6693 9.088 56.3199 9.128 55.8933 9.208C55.4666 9.28267 55.0399 9.392 54.6133 9.536L54.0293 7.856C54.5786 7.648 55.1493 7.49067 55.7413 7.384C56.3386 7.27733 56.8719 7.224 57.3413 7.224C58.6053 7.224 59.5386 7.48267 60.1413 8C60.7493 8.512 61.0533 9.25333 61.0533 10.224V13.552ZM57.0853 14.464C57.3573 14.464 57.6426 14.384 57.9413 14.224C58.2399 14.0587 58.4666 13.8267 58.6213 13.528V12.152H57.9973C57.2933 12.152 56.7759 12.2613 56.4453 12.48C56.1146 12.6933 55.9493 13.008 55.9493 13.424C55.9493 13.7493 56.0479 14.0053 56.2453 14.192C56.4479 14.3733 56.7279 14.464 57.0853 14.464ZM66.903 14.464C67.3243 14.464 67.663 14.3973 67.919 14.264C68.1803 14.1307 68.311 13.9307 68.311 13.664C68.311 13.4827 68.2603 13.3307 68.159 13.208C68.0577 13.0853 67.863 12.968 67.575 12.856C67.287 12.744 66.8603 12.6107 66.295 12.456C65.7777 12.3173 65.319 12.1413 64.919 11.928C64.5243 11.7147 64.215 11.44 63.991 11.104C63.7723 10.768 63.663 10.3493 63.663 9.848C63.663 9.34133 63.8043 8.89067 64.087 8.496C64.3697 8.10133 64.7857 7.792 65.335 7.568C65.8843 7.33867 66.5563 7.224 67.351 7.224C68.1083 7.224 68.767 7.32267 69.327 7.52C69.8923 7.712 70.3803 7.95733 70.791 8.256L69.783 9.744C69.431 9.52533 69.0523 9.352 68.647 9.224C68.2417 9.09067 67.8337 9.024 67.423 9.024C67.0123 9.024 66.7057 9.08 66.503 9.192C66.3057 9.29867 66.207 9.46133 66.207 9.68C66.207 9.824 66.2577 9.94933 66.359 10.056C66.4657 10.1573 66.663 10.264 66.951 10.376C67.239 10.4827 67.6603 10.616 68.215 10.776C68.7643 10.9307 69.2417 11.1093 69.647 11.312C70.0577 11.5147 70.375 11.7867 70.599 12.128C70.823 12.464 70.935 12.9093 70.935 13.464C70.935 14.0827 70.751 14.6027 70.383 15.024C70.015 15.44 69.527 15.752 68.919 15.96C68.311 16.168 67.6443 16.272 66.919 16.272C66.0977 16.272 65.3723 16.1547 64.743 15.92C64.1137 15.6853 63.5777 15.376 63.135 14.992L64.407 13.568C64.7377 13.824 65.111 14.0373 65.527 14.208C65.9483 14.3787 66.407 14.464 66.903 14.464Z" fill="white"/>
</svg>
