<?xml version="1.0" standalone="no"?>
<!DOCTYPE svg PUBLIC "-//W3C//DTD SVG 20010904//EN"
 "http://www.w3.org/TR/2001/REC-SVG-20010904/DTD/svg10.dtd">
<svg version="1.0" xmlns="http://www.w3.org/2000/svg"
 width="100.000000pt" height="100.000000pt" viewBox="0 0 100.000000 100.000000"
 preserveAspectRatio="xMidYMid meet">

<g transform="translate(0.000000,100.000000) scale(0.100000,-0.100000)"
fill="#000000" stroke="none">
<path d="M480 925 c0 -51 3 -65 15 -65 12 0 15 14 15 65 0 51 -3 65 -15 65
-12 0 -15 -14 -15 -65z"/>
<path d="M180 872 c0 -4 20 -28 45 -52 38 -37 45 -41 51 -26 5 12 -4 28 -27
52 -30 31 -69 46 -69 26z"/>
<path d="M741 846 c-23 -24 -32 -40 -27 -52 6 -15 13 -11 51 26 25 24 45 48
45 52 0 20 -39 5 -69 -26z"/>
<path d="M404 784 c-92 -33 -158 -133 -157 -239 0 -48 9 -78 41 -150 23 -50
48 -118 57 -150 8 -33 23 -66 32 -72 25 -19 122 -17 130 2 8 23 -2 29 -59 35
l-51 5 -13 51 c-7 29 -32 93 -55 144 -37 83 -41 99 -37 155 6 99 62 163 165
189 31 8 49 18 51 29 4 22 -45 22 -104 1z"/>
<path d="M560 759 c-7 -11 -27 -27 -46 -35 -29 -12 -35 -19 -32 -41 2 -21 11
-28 47 -39 77 -23 121 -81 121 -161 0 -80 -44 -128 -134 -148 -42 -9 -52 -16
-54 -35 -4 -25 12 -40 45 -40 12 0 35 -14 51 -31 26 -28 30 -29 56 -18 24 11
27 17 23 46 -5 26 0 40 20 63 21 26 32 30 65 28 26 -1 43 3 49 13 16 26 10 56
-16 73 -36 24 -35 86 2 120 23 22 26 29 17 53 -8 25 -14 28 -53 28 -57 0 -93
37 -84 90 5 31 3 36 -21 45 -38 14 -44 13 -56 -11z"/>
<path d="M445 595 c-3 -8 -7 -22 -10 -30 -2 -8 -13 -15 -24 -15 -29 0 -36 -18
-15 -41 16 -17 16 -20 1 -37 -18 -20 -11 -38 18 -43 12 -3 21 -14 23 -27 4
-25 14 -27 42 -10 16 10 24 10 40 0 21 -13 45 -8 35 8 -7 11 24 42 35 35 16
-10 22 17 9 41 -10 19 -10 27 -1 36 18 18 14 38 -7 38 -21 0 -44 23 -34 34 16
16 -22 25 -39 9 -17 -15 -19 -15 -36 0 -23 21 -31 21 -37 2z m78 -46 c28 -15
37 -28 37 -58 0 -47 -57 -78 -97 -53 -37 24 -31 95 9 112 30 12 26 12 51 -1z"/>
<path d="M64 579 c-10 -16 15 -29 58 -29 46 0 68 8 68 26 0 17 -115 20 -126 3z"/>
<path d="M805 579 c-12 -18 16 -29 70 -27 37 2 50 7 50 18 0 19 -109 27 -120
9z"/>
<path d="M365 109 c-15 -23 16 -30 136 -27 102 3 124 6 124 18 0 12 -22 15
-127 18 -85 2 -129 -1 -133 -9z"/>
<path d="M425 30 c-13 -22 12 -31 76 -28 49 2 64 7 64 18 0 12 -15 16 -67 18
-41 2 -69 -1 -73 -8z"/>
</g>
</svg>
